#!OML:ASF F:\VICON\USERDATA\INSTALL\Justin_Nancy\Justin_Nancy.ASF
:FULLY-SPECIFIED
:DEGREES
17
root -9.6719 17.5012 -20.4793 4.27621 4.58497 -8.0792
lowerback 10.6543 2.51288 4.24931
upperback 0.235988 4.14897 4.66122
thorax -5.78561 1.9906 1.86449
lowerneck -20.5378 -3.85335 -8.33214
upperneck 15.1868 -4.03264 6.22351
head 8.39202 -1.75006 2.93304
rclavicle -1.88845e-015 1.66979e-014
rhumerus -37.1699 16.2424 -84.3981
rradius 114.422
rwrist -21.366
rhand -7.31574 23.2296
rfingers 7.12502
rthumb 18.5671 -5.90427
lclavicle -1.88845e-015 1.66979e-014
lhumerus -51.6297 -5.52349 96.9979
lradius 97.6528
lwrist 29.018
lhand -13.9646 10.5102
lfingers 7.12502
lthumb 12.1633 40.1366
rfemur -2.06869 -0.608234 22.9183
rtibia 32.2344
rfoot -6.60383 -2.70377
rtoes -27.2897
lfemur -31.4112 9.35774 -15.8463
ltibia 83.1609
lfoot 1.71314 -11.4269
ltoes -7.26737
18
root -9.60746 17.5821 -20.0723 4.34484 5.30947 -8.5159
lowerback 10.2348 2.65359 4.47893
upperback 0.0764611 4.35587 4.83591
thorax -5.71759 2.09055 1.90549
lowerneck -20.4174 -3.93479 -8.40732
upperneck 15.4486 -4.15074 6.26403
head 8.47207 -1.80897 2.94609
rclavicle 4.14466e-014 3.26007e-014
rhumerus -37.292 16.836 -84.2696
rradius 114.8
rwrist -21.0058
rhand -6.09682 25.2899
rfingers 7.12502
rthumb 19.7393 -3.72789
lclavicle 4.14466e-014 3.26007e-014
lhumerus -52.6594 -5.45017 97.4239
lradius 97.934
lwrist 28.8876
lhand -13.2203 10.2694
lfingers 7.12502
lthumb 12.8808 39.8519
rfemur -0.465785 -0.812568 23.0853
rtibia 30.9712
rfoot -3.37177 -1.43632
rtoes -26.2665
lfemur -32.6826 9.17341 -16.4476
ltibia 80.9493
lfoot 1.0708 -11.5457
ltoes -6.05619
19
root -9.54194 17.6595 -19.6633 4.25267 6.25612 -8.85216
lowerback 10.034 2.732 4.78375
upperback -0.041784 4.49052 4.84468
thorax -5.70831 2.14855 1.73315
lowerneck -20.4934 -4.15243 -8.26053
upperneck 15.6679 -4.49432 6.25817
head 8.58334 -1.96148 2.87393
rclavicle 2.127e-014 8.74653e-015
rhumerus -37.3861 17.2789 -84.4641
rradius 115.095
rwrist -21.29
rhand -6.50192 24.9537
rfingers 7.12502
rthumb 19.3498 -4.10359
lclavicle 2.127e-014 8.74653e-015
lhumerus -53.6733 -5.63335 97.5905
lradius 98.2568
lwrist 28.9108
lhand -12.9616 9.90636
lfingers 7.12502
lthumb 13.1302 39.473
rfemur 1.34361 -1.28852 23.1559
rtibia 29.5899
rfoot 0.328655 -0.450881
rtoes -24.039
lfemur -33.6749 8.7826 -17.1514
ltibia 78.4789
lfoot 0.596438 -11.6311
ltoes -4.9423
20
root -9.4735 17.7383 -19.2489 4.08499 7.38382 -9.18505
lowerback 9.79533 2.73489 5.20804
upperback -0.12518 4.52566 4.76902
thorax -5.62341 2.15418 1.42389
lowerneck -20.3796 -4.36708 -8.08572
upperneck 15.6413 -4.86266 6.32275
head 8.58085 -2.11882 2.81706
rclavicle -4.39314e-014 -4.37326e-014
rhumerus -37.6002 17.4252 -84.7875
rradius 115.461
rwrist -21.2506
rhand -7.0256 24.2156
rfingers 7.12502
rthumb 18.8462 -4.89139
lclavicle -4.39314e-014 -4.37326e-014
lhumerus -54.7122 -5.85633 97.5679
lradius 98.6987
lwrist 28.964
lhand -13.7183 10.0355
lfingers 7.12502
lthumb 12.4007 39.6477
rfemur 3.24706 -1.9136 23.2369
rtibia 28.0646
rfoot 4.34744 0.0350424
rtoes -20.6411
lfemur -34.3631 8.15588 -17.7968
ltibia 75.7439
lfoot 0.175861 -11.4317
ltoes -3.44268
21
root -9.40964 17.8171 -18.8319 3.90298 8.4193 -9.29301
lowerback 9.64436 2.72476 5.30847
upperback -0.274931 4.51522 4.64055
thorax -5.67818 2.14234 1.23958
lowerneck -20.0809 -4.39448 -8.00352
upperneck 15.869 -5.01127 6.57424
head 8.62334 -2.16231 2.87402
rclavicle -2.45499e-014 -2.22639e-014
rhumerus -38.039 17.5399 -85.2033
rradius 115.745
rwrist -20.9304
rhand -6.0962 24.6697
rfingers 7.12502
rthumb 19.7399 -4.34801
lclavicle -2.45499e-014 -2.22639e-014
lhumerus -55.8081 -5.95994 97.4066
lradius 99.1518
lwrist 29.3284
lhand -14.2118 10.2192
lfingers 7.12502
lthumb 11.9249 39.8596
rfemur 5.08836 -2.30459 23.0991
rtibia 26.4138
rfoot 8.79392 -0.156858
rtoes -16.1843
lfemur -34.8286 7.63894 -18.613
ltibia 72.7407
lfoot -0.638759 -11.2303
ltoes -5.63353
22
root -9.34749 17.8883 -18.4107 3.7892 9.38935 -9.35658
lowerback 9.34488 2.6922 5.26861
upperback -0.366829 4.44499 4.56552
thorax -5.60346 2.10969 1.2056
lowerneck -19.834 -4.41066 -8.05998
upperneck 15.9911 -5.09716 6.8372
head 8.6381 -2.18287 2.96517
rclavicle -2.38542e-015 3.10104e-014
rhumerus -38.4553 17.8799 -85.601
rradius 115.859
rwrist -20.25
rhand -5.58921 25.3758
rfingers 7.12502
rthumb 20.2272 -3.59103
lclavicle -2.38542e-015 3.10104e-014
lhumerus -56.6569 -5.95547 97.175
lradius 99.5537
lwrist 29.7628
lhand -14.3058 10.212
lfingers 7.12502
lthumb 11.8343 39.8576
rfemur 6.84134 -2.53359 22.9443
rtibia 24.7015
rfoot 13.2075 -0.570118
rtoes -13.8887
lfemur -35.2039 7.23247 -19.5087
ltibia 69.4917
lfoot -1.83224 -10.9804
ltoes -9.71366
23
root -9.27409 17.9614 -17.9569 3.71877 10.2443 -8.93905
lowerback 8.60653 2.70186 4.75627
upperback -0.249201 4.32154 4.34856
thorax -5.08198 2.07301 1.31715
lowerneck -19.6172 -4.50706 -7.97997
upperneck 15.6069 -5.2629 6.89599
head 8.48295 -2.25451 2.94837
rclavicle 8.0309e-014 5.1684e-014
rhumerus -38.756 18.1669 -85.9714
rradius 116.091
rwrist -19.7917
rhand -5.39153 25.7495
rfingers 7.12502
rthumb 20.4172 -3.19715
lclavicle 8.0309e-014 5.1684e-014
lhumerus -57.3287 -5.88543 96.8223
lradius 100.066
lwrist 29.9771
lhand -14.287 10.0792
lfingers 7.12502
lthumb 11.8524 39.7237
rfemur 8.83648 -2.78745 22.1923
rtibia 23.0651
rfoot 16.9406 -0.765648
rtoes -12.1013
lfemur -35.0654 7.02174 -20.9676
ltibia 65.9195
lfoot -2.58309 -10.5296
ltoes -11.129
24
root -9.19454 18.0296 -17.5061 3.72117 11.148 -8.63817
lowerback 8.02992 2.70604 4.49081
upperback -0.285923 4.24254 4.04203
thorax -4.78957 2.04254 1.18211
lowerneck -19.4833 -4.56277 -7.65867
upperneck 15.3591 -5.44509 6.97552
head 8.38397 -2.31581 2.89785
rclavicle -5.07895e-014 7.15625e-015
rhumerus -39.2864 18.1742 -86.4749
rradius 116.35
rwrist -19.659
rhand -5.12844 25.9282
rfingers 7.12502
rthumb 20.67 -2.99113
lclavicle -5.07895e-014 7.15625e-015
lhumerus -58.3188 -6.10205 96.2865
lradius 100.847
lwrist 30.1253
lhand -13.985 9.8274
lfingers 7.12502
lthumb 12.1435 39.455
rfemur 10.7263 -2.98681 21.6105
rtibia 21.6008
rfoot 19.0019 0.102909
rtoes -10.7191
lfemur -34.8887 6.863 -22.3026
ltibia 62.2285
lfoot -3.19001 -9.97017
ltoes -12.2314
25
root -9.12626 18.0922 -17.0926 3.75676 12.07 -9.33095
lowerback 7.92494 2.65023 5.18807
upperback -0.518427 4.24367 4.06257
thorax -4.92735 2.02108 0.817945
lowerneck -19.7873 -4.61556 -7.62757
upperneck 15.7012 -5.52658 6.99597
head 8.55872 -2.34245 2.88765
rclavicle 2.21645e-014 4.81059e-014
rhumerus -39.9159 18.3008 -86.8558
rradius 116.647
rwrist -19.4673
rhand -5.19801 25.7427
rfingers 7.12502
rthumb 20.6031 -3.18386
lclavicle 2.21645e-014 4.81059e-014
lhumerus -59.1828 -6.19122 95.8159
lradius 101.611
lwrist 30.1512
lhand -13.7981 9.29387
lfingers 7.12502
lthumb 12.3237 38.9107
rfemur 12.0504 -2.36765 22.5259
rtibia 20.4267
rfoot 20.6612 -0.186314
rtoes -8.25131
lfemur -35.2219 6.77794 -22.5277
ltibia 58.4834
lfoot -3.49832 -9.37705
ltoes -13.6461
26
root -9.05959 18.147 -16.6782 3.81345 12.617 -10.132
lowerback 7.55185 2.76045 5.77004
upperback -0.621344 4.42921 4.21813
thorax -4.79199 2.10281 0.655179
lowerneck -19.7352 -4.76255 -7.86284
upperneck 15.7008 -5.68229 7.0833
head 8.57184 -2.42205 2.93475
rclavicle -4.2192e-014 -2.0276e-014
rhumerus -40.6955 18.557 -87.248
rradius 117.045
rwrist -18.7571
rhand -5.92762 25.8624
rfingers 7.12502
rthumb 19.9019 -3.13859
lclavicle -4.2192e-014 -2.0276e-014
lhumerus -59.7746 -6.29505 95.4707
lradius 102.323
lwrist 29.9325
lhand -13.4597 9.19213
lfingers 7.12502
lthumb 12.65 38.7891
rfemur 13.1287 -1.40907 23.634
rtibia 19.7478
rfoot 21.8122 -0.620137
rtoes -8.50918
lfemur -35.4774 6.97929 -22.6146
ltibia 54.6478
lfoot -2.82122 -8.60332
ltoes -10.7689
27
root -8.99219 18.1961 -16.2507 3.82753 13.0319 -10.4275
lowerback 7.06913 3.00048 5.62064
upperback -0.64068 4.70124 4.32847
thorax -4.55363 2.24995 0.849567
lowerneck -19.5649 -5.00581 -8.01077
upperneck 15.7304 -5.96282 6.9591
head 8.57537 -2.57936 2.87895
rclavicle 1.59525e-014 9.54166e-015
rhumerus -41.7983 18.7397 -87.6573
rradius 117.705
rwrist -18.0539
rhand -6.22531 25.8704
rfingers 7.12502
rthumb 19.6157 -3.15996
lclavicle 1.59525e-014 9.54166e-015
lhumerus -60.3939 -6.52419 95.2359
lradius 103.035
lwrist 29.7402
lhand -13.1413 8.82506
lfingers 7.12502
lthumb 12.957 38.4028
rfemur 14.2465 -0.536965 24.21
rtibia 19.6308
rfoot 22.1693 -1.44574
rtoes -10.4098
lfemur -35.3178 7.08668 -23.1763
ltibia 50.7475
lfoot -1.91278 -7.50213
ltoes -6.98763
28
root -8.92804 18.2359 -15.8306 3.71141 13.534 -10.8883
lowerback 5.6008 3.30041 5.30576
upperback 0.233389 4.9068 4.85491
thorax -2.88381 2.41169 1.66406
lowerneck -20.1158 -5.39765 -8.66557
upperneck 15.2047 -6.22099 6.87679
head 8.53157 -2.73904 2.9099
rclavicle 9.44227e-015 7.196e-014
rhumerus -41.096 18.9702 -86.663
rradius 118.06
rwrist -18.1067
rhand -5.85101 26.2863
rfingers 7.12502
rthumb 19.9756 -2.70701
lclavicle 9.44227e-015 7.196e-014
lhumerus -59.3748 -6.71058 95.5181
lradius 103.522
lwrist 29.4095
lhand -13.2747 9.16005
lfingers 7.12502
lthumb 12.8284 38.7459
rfemur 15.1847 0.390647 25.1271
rtibia 20.049
rfoot 21.876 -3.5984
rtoes -10.108
lfemur -34.9947 7.05421 -23.4753
ltibia 46.8652
lfoot -1.26167 -6.32576
ltoes -4.95576
29
root -8.86504 18.261 -15.4196 3.55234 13.8545 -11.7784
lowerback 7.82364 3.16009 6.58049
upperback -1.33004 5.12339 4.21373
thorax -5.60884 2.39115 0.0943406
lowerneck -19.478 -5.1039 -7.98484
upperneck 16.0216 -6.20137 7.30959
head 8.69057 -2.65339 2.96455
rclavicle -5.15846e-014 2.5842e-015
rhumerus -43.9486 18.8347 -89.1566
rradius 118.407
rwrist -17.6872
rhand -5.51913 26.4398
rfingers 7.12502
rthumb 20.2946 -2.51988
lclavicle -5.15846e-014 2.5842e-015
lhumerus -61.9985 -7.14767 93.8477
lradius 104.596
lwrist 29.1765
lhand -13.3532 9.40599
lfingers 7.12502
lthumb 12.7527 38.9965
rfemur 15.7499 1.34935 26.5285
rtibia 20.9688
rfoot 21.0979 -5.85767
rtoes -7.33344
lfemur -34.7633 7.0489 -23.2499
ltibia 43.0958
lfoot -0.552068 -4.95786
ltoes -3.45142
30
root -8.80318 18.2775 -15.0169 3.35203 14.1576 -12.7104
lowerback 7.68075 3.32966 7.12083
upperback -1.22023 5.3902 4.40155
thorax -5.37297 2.51841 -0.0225011
lowerneck -19.3786 -5.10419 -8.15931
upperneck 15.5339 -6.18068 7.54754
head 8.52025 -2.63446 3.07569
rclavicle 4.67144e-014 1.53064e-014
rhumerus -43.9058 18.8139 -89.0576
rradius 118.488
rwrist -17.8509
rhand -5.33341 25.7364
rfingers 7.12502
rthumb 20.473 -3.20418
lclavicle 4.67144e-014 1.53064e-014
lhumerus -61.638 -7.34663 93.3856
lradius 104.916
lwrist 28.5712
lhand -13.5536 8.83207
lfingers 7.12502
lthumb 12.5595 38.4346
rfemur 16.0885 2.14523 27.9372
rtibia 22.2966
rfoot 20.4916 -7.37261
rtoes -4.4546
lfemur -34.4944 6.81407 -22.8694
ltibia 39.5008
lfoot 0.0514492 -3.19862
ltoes -2.28214
